<mxfile host="app.diagrams.net" agent="Mozilla/5.0 (X11; Linux x86_64) AppleWebKit/537.36 (KHTML, like Gecko) Chrome/127.0.0.0 Safari/537.36" version="24.7.8">
  <diagram name="Страница — 1" id="05sHYrKq2Ivi8mcF41lW">
    <mxGraphModel dx="1638" dy="962" grid="1" gridSize="10" guides="1" tooltips="1" connect="1" arrows="1" fold="1" page="0" pageScale="1" pageWidth="827" pageHeight="1169" math="0" shadow="0">
      <root>
        <mxCell id="0" />
        <mxCell id="1" parent="0" />
        <mxCell id="2KyuYjnsHFpbmhm6zwG6-34" style="edgeStyle=orthogonalEdgeStyle;shape=connector;rounded=0;orthogonalLoop=1;jettySize=auto;html=1;exitX=1;exitY=0.5;exitDx=0;exitDy=0;exitPerimeter=0;strokeColor=default;align=center;verticalAlign=middle;fontFamily=Helvetica;fontSize=11;fontColor=default;labelBackgroundColor=default;endArrow=none;endFill=0;" parent="1" source="2KyuYjnsHFpbmhm6zwG6-26" edge="1">
          <mxGeometry relative="1" as="geometry">
            <mxPoint x="329.7777777777778" y="270" as="targetPoint" />
          </mxGeometry>
        </mxCell>
        <mxCell id="2KyuYjnsHFpbmhm6zwG6-22" style="edgeStyle=orthogonalEdgeStyle;shape=connector;rounded=0;orthogonalLoop=1;jettySize=auto;html=1;exitX=0.25;exitY=1;exitDx=0;exitDy=0;entryX=0.25;entryY=0;entryDx=0;entryDy=0;strokeColor=default;align=center;verticalAlign=middle;fontFamily=Helvetica;fontSize=11;fontColor=default;labelBackgroundColor=default;endArrow=classic;endFill=1;" parent="1" source="2KyuYjnsHFpbmhm6zwG6-3" target="2KyuYjnsHFpbmhm6zwG6-11" edge="1">
          <mxGeometry relative="1" as="geometry" />
        </mxCell>
        <mxCell id="2KyuYjnsHFpbmhm6zwG6-23" style="edgeStyle=orthogonalEdgeStyle;shape=connector;rounded=0;orthogonalLoop=1;jettySize=auto;html=1;exitX=0.75;exitY=1;exitDx=0;exitDy=0;entryX=0.75;entryY=0;entryDx=0;entryDy=0;strokeColor=default;align=center;verticalAlign=middle;fontFamily=Helvetica;fontSize=11;fontColor=default;labelBackgroundColor=default;endArrow=classic;endFill=1;" parent="1" source="2KyuYjnsHFpbmhm6zwG6-3" target="2KyuYjnsHFpbmhm6zwG6-11" edge="1">
          <mxGeometry relative="1" as="geometry" />
        </mxCell>
        <mxCell id="2KyuYjnsHFpbmhm6zwG6-3" value="Service" style="html=1;dropTarget=0;whiteSpace=wrap;" parent="1" vertex="1">
          <mxGeometry x="320" y="370" width="180" height="90" as="geometry" />
        </mxCell>
        <mxCell id="2KyuYjnsHFpbmhm6zwG6-4" value="" style="shape=module;jettyWidth=8;jettyHeight=4;" parent="2KyuYjnsHFpbmhm6zwG6-3" vertex="1">
          <mxGeometry x="1" width="20" height="20" relative="1" as="geometry">
            <mxPoint x="-27" y="7" as="offset" />
          </mxGeometry>
        </mxCell>
        <mxCell id="2KyuYjnsHFpbmhm6zwG6-31" style="edgeStyle=orthogonalEdgeStyle;shape=connector;rounded=0;orthogonalLoop=1;jettySize=auto;html=1;exitX=0.25;exitY=1;exitDx=0;exitDy=0;entryX=0.25;entryY=1;entryDx=0;entryDy=0;strokeColor=default;align=center;verticalAlign=middle;fontFamily=Helvetica;fontSize=11;fontColor=default;labelBackgroundColor=default;endArrow=none;endFill=0;" parent="1" source="2KyuYjnsHFpbmhm6zwG6-5" target="2KyuYjnsHFpbmhm6zwG6-7" edge="1">
          <mxGeometry relative="1" as="geometry" />
        </mxCell>
        <mxCell id="2KyuYjnsHFpbmhm6zwG6-32" style="edgeStyle=orthogonalEdgeStyle;shape=connector;rounded=0;orthogonalLoop=1;jettySize=auto;html=1;exitX=0.75;exitY=1;exitDx=0;exitDy=0;entryX=0.75;entryY=1;entryDx=0;entryDy=0;strokeColor=default;align=center;verticalAlign=middle;fontFamily=Helvetica;fontSize=11;fontColor=default;labelBackgroundColor=default;endArrow=none;endFill=0;jumpStyle=arc;" parent="1" source="2KyuYjnsHFpbmhm6zwG6-5" target="2KyuYjnsHFpbmhm6zwG6-7" edge="1">
          <mxGeometry relative="1" as="geometry">
            <Array as="points">
              <mxPoint x="300" y="290" />
              <mxPoint x="610" y="290" />
            </Array>
          </mxGeometry>
        </mxCell>
        <mxCell id="2KyuYjnsHFpbmhm6zwG6-5" value="WebAPI" style="html=1;dropTarget=0;whiteSpace=wrap;" parent="1" vertex="1">
          <mxGeometry x="165" y="160" width="180" height="90" as="geometry" />
        </mxCell>
        <mxCell id="2KyuYjnsHFpbmhm6zwG6-6" value="" style="shape=module;jettyWidth=8;jettyHeight=4;" parent="2KyuYjnsHFpbmhm6zwG6-5" vertex="1">
          <mxGeometry x="1" width="20" height="20" relative="1" as="geometry">
            <mxPoint x="-27" y="7" as="offset" />
          </mxGeometry>
        </mxCell>
        <mxCell id="2KyuYjnsHFpbmhm6zwG6-7" value="GUI" style="html=1;dropTarget=0;whiteSpace=wrap;" parent="1" vertex="1">
          <mxGeometry x="475" y="160" width="180" height="90" as="geometry" />
        </mxCell>
        <mxCell id="2KyuYjnsHFpbmhm6zwG6-8" value="" style="shape=module;jettyWidth=8;jettyHeight=4;" parent="2KyuYjnsHFpbmhm6zwG6-7" vertex="1">
          <mxGeometry x="1" width="20" height="20" relative="1" as="geometry">
            <mxPoint x="-27" y="7" as="offset" />
          </mxGeometry>
        </mxCell>
        <mxCell id="2KyuYjnsHFpbmhm6zwG6-24" style="edgeStyle=orthogonalEdgeStyle;shape=connector;rounded=0;orthogonalLoop=1;jettySize=auto;html=1;exitX=0.25;exitY=1;exitDx=0;exitDy=0;strokeColor=default;align=center;verticalAlign=middle;fontFamily=Helvetica;fontSize=11;fontColor=default;labelBackgroundColor=default;endArrow=none;endFill=0;jumpStyle=arc;" parent="1" source="2KyuYjnsHFpbmhm6zwG6-9" edge="1">
          <mxGeometry relative="1" as="geometry">
            <mxPoint x="680.0000000000001" y="460" as="sourcePoint" />
            <mxPoint x="365" y="480" as="targetPoint" />
            <Array as="points">
              <mxPoint x="685" y="480" />
            </Array>
          </mxGeometry>
        </mxCell>
        <mxCell id="2KyuYjnsHFpbmhm6zwG6-25" style="edgeStyle=orthogonalEdgeStyle;shape=connector;rounded=0;orthogonalLoop=1;jettySize=auto;html=1;exitX=0.75;exitY=1;exitDx=0;exitDy=0;strokeColor=default;align=center;verticalAlign=middle;fontFamily=Helvetica;fontSize=11;fontColor=default;labelBackgroundColor=default;endArrow=none;endFill=0;" parent="1" source="2KyuYjnsHFpbmhm6zwG6-9" edge="1">
          <mxGeometry relative="1" as="geometry">
            <mxPoint x="455" y="520" as="targetPoint" />
            <mxPoint x="770" y="460" as="sourcePoint" />
            <Array as="points">
              <mxPoint x="775" y="520" />
            </Array>
          </mxGeometry>
        </mxCell>
        <mxCell id="2KyuYjnsHFpbmhm6zwG6-9" value="Repository" style="html=1;dropTarget=0;whiteSpace=wrap;" parent="1" vertex="1">
          <mxGeometry x="640" y="370" width="180" height="90" as="geometry" />
        </mxCell>
        <mxCell id="2KyuYjnsHFpbmhm6zwG6-10" value="" style="shape=module;jettyWidth=8;jettyHeight=4;" parent="2KyuYjnsHFpbmhm6zwG6-9" vertex="1">
          <mxGeometry x="1" width="20" height="20" relative="1" as="geometry">
            <mxPoint x="-27" y="7" as="offset" />
          </mxGeometry>
        </mxCell>
        <mxCell id="2KyuYjnsHFpbmhm6zwG6-11" value="Domain" style="html=1;dropTarget=0;whiteSpace=wrap;" parent="1" vertex="1">
          <mxGeometry x="320" y="540" width="180" height="90" as="geometry" />
        </mxCell>
        <mxCell id="2KyuYjnsHFpbmhm6zwG6-12" value="" style="shape=module;jettyWidth=8;jettyHeight=4;" parent="2KyuYjnsHFpbmhm6zwG6-11" vertex="1">
          <mxGeometry x="1" width="20" height="20" relative="1" as="geometry">
            <mxPoint x="-27" y="7" as="offset" />
          </mxGeometry>
        </mxCell>
        <mxCell id="2KyuYjnsHFpbmhm6zwG6-14" value="" style="ellipse;whiteSpace=wrap;html=1;align=center;aspect=fixed;fillColor=none;strokeColor=none;resizable=0;perimeter=centerPerimeter;rotatable=0;allowArrows=0;points=[];outlineConnect=1;" parent="1" vertex="1">
          <mxGeometry x="520" y="400" width="10" height="10" as="geometry" />
        </mxCell>
        <mxCell id="2KyuYjnsHFpbmhm6zwG6-18" style="edgeStyle=orthogonalEdgeStyle;rounded=0;orthogonalLoop=1;jettySize=auto;html=1;exitX=1;exitY=0.5;exitDx=0;exitDy=0;exitPerimeter=0;entryX=1;entryY=0.25;entryDx=0;entryDy=0;endArrow=none;endFill=0;" parent="1" source="2KyuYjnsHFpbmhm6zwG6-15" target="2KyuYjnsHFpbmhm6zwG6-3" edge="1">
          <mxGeometry relative="1" as="geometry" />
        </mxCell>
        <mxCell id="2KyuYjnsHFpbmhm6zwG6-15" value="" style="shape=providedRequiredInterface;html=1;verticalLabelPosition=bottom;sketch=0;flipH=1;" parent="1" vertex="1">
          <mxGeometry x="560" y="370" width="20" height="20" as="geometry" />
        </mxCell>
        <mxCell id="2KyuYjnsHFpbmhm6zwG6-19" style="edgeStyle=orthogonalEdgeStyle;shape=connector;rounded=0;orthogonalLoop=1;jettySize=auto;html=1;exitX=1;exitY=0.5;exitDx=0;exitDy=0;exitPerimeter=0;entryX=1;entryY=0.75;entryDx=0;entryDy=0;strokeColor=default;align=center;verticalAlign=middle;fontFamily=Helvetica;fontSize=11;fontColor=default;labelBackgroundColor=default;endArrow=none;endFill=0;" parent="1" source="2KyuYjnsHFpbmhm6zwG6-16" target="2KyuYjnsHFpbmhm6zwG6-3" edge="1">
          <mxGeometry relative="1" as="geometry" />
        </mxCell>
        <mxCell id="2KyuYjnsHFpbmhm6zwG6-16" value="" style="shape=providedRequiredInterface;html=1;verticalLabelPosition=bottom;sketch=0;flipH=1;" parent="1" vertex="1">
          <mxGeometry x="560" y="440" width="20" height="20" as="geometry" />
        </mxCell>
        <mxCell id="2KyuYjnsHFpbmhm6zwG6-20" style="edgeStyle=orthogonalEdgeStyle;shape=connector;rounded=0;orthogonalLoop=1;jettySize=auto;html=1;exitX=0;exitY=0.25;exitDx=0;exitDy=0;entryX=0;entryY=0.5;entryDx=0;entryDy=0;entryPerimeter=0;strokeColor=default;align=center;verticalAlign=middle;fontFamily=Helvetica;fontSize=11;fontColor=default;labelBackgroundColor=default;endArrow=none;endFill=0;" parent="1" source="2KyuYjnsHFpbmhm6zwG6-9" target="2KyuYjnsHFpbmhm6zwG6-15" edge="1">
          <mxGeometry relative="1" as="geometry" />
        </mxCell>
        <mxCell id="2KyuYjnsHFpbmhm6zwG6-21" style="edgeStyle=orthogonalEdgeStyle;shape=connector;rounded=0;orthogonalLoop=1;jettySize=auto;html=1;exitX=0;exitY=0.75;exitDx=0;exitDy=0;entryX=0;entryY=0.5;entryDx=0;entryDy=0;entryPerimeter=0;strokeColor=default;align=center;verticalAlign=middle;fontFamily=Helvetica;fontSize=11;fontColor=default;labelBackgroundColor=default;endArrow=none;endFill=0;" parent="1" source="2KyuYjnsHFpbmhm6zwG6-9" target="2KyuYjnsHFpbmhm6zwG6-16" edge="1">
          <mxGeometry relative="1" as="geometry" />
        </mxCell>
        <mxCell id="2KyuYjnsHFpbmhm6zwG6-26" value="" style="shape=providedRequiredInterface;html=1;verticalLabelPosition=bottom;sketch=0;fontFamily=Helvetica;fontSize=11;fontColor=default;labelBackgroundColor=default;rotation=270;" parent="1" vertex="1">
          <mxGeometry x="320" y="310" width="20" height="20" as="geometry" />
        </mxCell>
        <mxCell id="2KyuYjnsHFpbmhm6zwG6-33" style="edgeStyle=orthogonalEdgeStyle;shape=connector;rounded=0;orthogonalLoop=1;jettySize=auto;html=1;exitX=1;exitY=0.5;exitDx=0;exitDy=0;exitPerimeter=0;strokeColor=default;align=center;verticalAlign=middle;fontFamily=Helvetica;fontSize=11;fontColor=default;labelBackgroundColor=default;endArrow=none;endFill=0;" parent="1" source="2KyuYjnsHFpbmhm6zwG6-27" edge="1">
          <mxGeometry relative="1" as="geometry">
            <mxPoint x="489.7777777777778" y="290" as="targetPoint" />
          </mxGeometry>
        </mxCell>
        <mxCell id="2KyuYjnsHFpbmhm6zwG6-27" value="" style="shape=providedRequiredInterface;html=1;verticalLabelPosition=bottom;sketch=0;fontFamily=Helvetica;fontSize=11;fontColor=default;labelBackgroundColor=default;rotation=270;" parent="1" vertex="1">
          <mxGeometry x="480" y="310" width="20" height="20" as="geometry" />
        </mxCell>
        <mxCell id="2KyuYjnsHFpbmhm6zwG6-29" style="edgeStyle=orthogonalEdgeStyle;shape=connector;rounded=0;orthogonalLoop=1;jettySize=auto;html=1;exitX=0.75;exitY=0;exitDx=0;exitDy=0;entryX=0;entryY=0.5;entryDx=0;entryDy=0;entryPerimeter=0;strokeColor=default;align=center;verticalAlign=middle;fontFamily=Helvetica;fontSize=11;fontColor=default;labelBackgroundColor=default;endArrow=none;endFill=0;" parent="1" source="2KyuYjnsHFpbmhm6zwG6-3" target="2KyuYjnsHFpbmhm6zwG6-27" edge="1">
          <mxGeometry relative="1" as="geometry" />
        </mxCell>
        <mxCell id="2KyuYjnsHFpbmhm6zwG6-30" style="edgeStyle=orthogonalEdgeStyle;shape=connector;rounded=0;orthogonalLoop=1;jettySize=auto;html=1;exitX=0.25;exitY=0;exitDx=0;exitDy=0;entryX=0;entryY=0.5;entryDx=0;entryDy=0;entryPerimeter=0;strokeColor=default;align=center;verticalAlign=middle;fontFamily=Helvetica;fontSize=11;fontColor=default;labelBackgroundColor=default;endArrow=none;endFill=0;" parent="1" source="2KyuYjnsHFpbmhm6zwG6-3" target="2KyuYjnsHFpbmhm6zwG6-26" edge="1">
          <mxGeometry relative="1" as="geometry" />
        </mxCell>
        <mxCell id="2KyuYjnsHFpbmhm6zwG6-36" value="*Services*" style="text;html=1;align=center;verticalAlign=middle;whiteSpace=wrap;rounded=0;fontFamily=Helvetica;fontSize=11;fontColor=default;labelBackgroundColor=default;" parent="1" vertex="1">
          <mxGeometry x="380" y="310" width="60" height="30" as="geometry" />
        </mxCell>
        <mxCell id="2KyuYjnsHFpbmhm6zwG6-37" value="*Repositories*" style="text;html=1;align=center;verticalAlign=middle;whiteSpace=wrap;rounded=0;fontFamily=Helvetica;fontSize=11;fontColor=default;labelBackgroundColor=default;" parent="1" vertex="1">
          <mxGeometry x="540" y="400" width="60" height="30" as="geometry" />
        </mxCell>
        <mxCell id="2KyuYjnsHFpbmhm6zwG6-39" value="*Models*" style="text;html=1;align=center;verticalAlign=middle;whiteSpace=wrap;rounded=0;fontFamily=Helvetica;fontSize=11;fontColor=default;labelBackgroundColor=default;" parent="1" vertex="1">
          <mxGeometry x="380" y="500" width="60" height="30" as="geometry" />
        </mxCell>
        <mxCell id="BxbiJxUR4f9wOtnEBNgX-1" value="Payment" style="html=1;dropTarget=0;whiteSpace=wrap;" vertex="1" parent="1">
          <mxGeometry x="10" y="320" width="180" height="90" as="geometry" />
        </mxCell>
        <mxCell id="BxbiJxUR4f9wOtnEBNgX-2" value="" style="shape=module;jettyWidth=8;jettyHeight=4;" vertex="1" parent="BxbiJxUR4f9wOtnEBNgX-1">
          <mxGeometry x="1" width="20" height="20" relative="1" as="geometry">
            <mxPoint x="-27" y="7" as="offset" />
          </mxGeometry>
        </mxCell>
        <mxCell id="BxbiJxUR4f9wOtnEBNgX-10" style="edgeStyle=orthogonalEdgeStyle;rounded=0;orthogonalLoop=1;jettySize=auto;html=1;exitX=0;exitY=0.5;exitDx=0;exitDy=0;exitPerimeter=0;entryX=1;entryY=0.5;entryDx=0;entryDy=0;endArrow=none;endFill=0;" edge="1" parent="1" source="BxbiJxUR4f9wOtnEBNgX-9" target="BxbiJxUR4f9wOtnEBNgX-1">
          <mxGeometry relative="1" as="geometry" />
        </mxCell>
        <mxCell id="BxbiJxUR4f9wOtnEBNgX-9" value="&lt;font style=&quot;font-size: 11px;&quot;&gt;PaymentGate&lt;/font&gt;" style="shape=providedRequiredInterface;html=1;verticalLabelPosition=bottom;sketch=0;flipH=0;" vertex="1" parent="1">
          <mxGeometry x="230" y="355" width="20" height="20" as="geometry" />
        </mxCell>
        <mxCell id="BxbiJxUR4f9wOtnEBNgX-11" style="edgeStyle=orthogonalEdgeStyle;shape=connector;rounded=0;orthogonalLoop=1;jettySize=auto;html=1;exitX=0;exitY=0.25;exitDx=0;exitDy=0;entryX=1;entryY=0.5;entryDx=0;entryDy=0;entryPerimeter=0;strokeColor=default;align=center;verticalAlign=middle;fontFamily=Helvetica;fontSize=11;fontColor=default;labelBackgroundColor=default;endArrow=none;endFill=0;" edge="1" parent="1" source="2KyuYjnsHFpbmhm6zwG6-3" target="BxbiJxUR4f9wOtnEBNgX-9">
          <mxGeometry relative="1" as="geometry" />
        </mxCell>
        <mxCell id="BxbiJxUR4f9wOtnEBNgX-12" value="Delivery" style="html=1;dropTarget=0;whiteSpace=wrap;" vertex="1" parent="1">
          <mxGeometry x="10" y="430" width="180" height="90" as="geometry" />
        </mxCell>
        <mxCell id="BxbiJxUR4f9wOtnEBNgX-13" value="" style="shape=module;jettyWidth=8;jettyHeight=4;" vertex="1" parent="BxbiJxUR4f9wOtnEBNgX-12">
          <mxGeometry x="1" width="20" height="20" relative="1" as="geometry">
            <mxPoint x="-27" y="7" as="offset" />
          </mxGeometry>
        </mxCell>
        <mxCell id="BxbiJxUR4f9wOtnEBNgX-15" style="edgeStyle=orthogonalEdgeStyle;shape=connector;rounded=0;orthogonalLoop=1;jettySize=auto;html=1;exitX=0;exitY=0.5;exitDx=0;exitDy=0;exitPerimeter=0;entryX=1;entryY=0.5;entryDx=0;entryDy=0;strokeColor=default;align=center;verticalAlign=middle;fontFamily=Helvetica;fontSize=11;fontColor=default;labelBackgroundColor=default;endArrow=none;endFill=0;" edge="1" parent="1" source="BxbiJxUR4f9wOtnEBNgX-14" target="BxbiJxUR4f9wOtnEBNgX-12">
          <mxGeometry relative="1" as="geometry" />
        </mxCell>
        <mxCell id="BxbiJxUR4f9wOtnEBNgX-16" style="edgeStyle=orthogonalEdgeStyle;shape=connector;rounded=0;orthogonalLoop=1;jettySize=auto;html=1;exitX=1;exitY=0.5;exitDx=0;exitDy=0;exitPerimeter=0;entryX=0;entryY=0.75;entryDx=0;entryDy=0;strokeColor=default;align=center;verticalAlign=middle;fontFamily=Helvetica;fontSize=11;fontColor=default;labelBackgroundColor=default;endArrow=none;endFill=0;" edge="1" parent="1" source="BxbiJxUR4f9wOtnEBNgX-14" target="2KyuYjnsHFpbmhm6zwG6-3">
          <mxGeometry relative="1" as="geometry" />
        </mxCell>
        <mxCell id="BxbiJxUR4f9wOtnEBNgX-14" value="&lt;font style=&quot;font-size: 11px;&quot;&gt;DeliveryInterface&lt;/font&gt;" style="shape=providedRequiredInterface;html=1;verticalLabelPosition=bottom;sketch=0;flipH=0;" vertex="1" parent="1">
          <mxGeometry x="230" y="465" width="20" height="20" as="geometry" />
        </mxCell>
      </root>
    </mxGraphModel>
  </diagram>
</mxfile>
